<svg xmlns="http://www.w3.org/2000/svg" viewBox="0 0 32 32" width="32" height="32">
	<style>
		tspan { white-space:pre }
	</style>
	<g id="Layer">
	</g>
	<path id="n. " fill="#ffff00" d="M2.04 7.57L2.04 25L7.88 25L7.88 15.51C7.88 13.53 8.89 12.37 10.77 12.37C12.65 12.37 13.69 13.6 13.69 15.51L13.69 25L19.54 25L19.54 14.64C19.54 10.17 16.69 7.1 12.43 7.1C10.37 7.1 8.64 7.79 7.6 9.12L7.6 7.57ZM22.5 21.97C22.5 24.03 24.12 25.58 26.25 25.58C28.31 25.58 29.97 24.03 29.97 21.97C29.97 19.91 28.31 18.32 26.25 18.32C24.12 18.32 22.5 19.91 22.5 21.97Z" />
</svg>